<svg width="30" height="33" viewBox="0 0 30 33" fill="none" xmlns="http://www.w3.org/2000/svg">
<path fill-rule="evenodd" clip-rule="evenodd" d="M14.4604 0.59518C14.2935 0.655126 13.9498 0.777731 13.6966 0.867639C13.2317 1.03271 12.1869 1.40396 11.7817 1.54806C11.6609 1.59104 11.1712 1.76497 10.6935 1.93458C10.2158 2.1042 9.42949 2.38371 8.94608 2.55573C8.46266 2.72776 7.79403 2.96486 7.46024 3.08266C7.12645 3.20045 6.80627 3.31462 6.74872 3.33638C6.69117 3.35816 6.35686 3.47762 6.0058 3.60187C5.43269 3.8047 4.73146 4.05365 2.4691 4.85749C2.08352 4.99452 1.3703 5.2475 0.884177 5.41969L0.000316113 5.73278L2.21757e-06 6.01634C-0.0001652 6.1723 0.00916829 6.59799 0.020741 6.96231C0.0863688 9.02743 0.283755 10.8963 0.638032 12.807C1.66589 18.3504 3.87317 23.1078 7.10226 26.7394C7.50938 27.1972 7.7585 27.4571 8.27544 27.963C10.0453 29.695 12.091 31.1437 14.3619 32.2732L14.818 32.5L15.1467 32.3433C17.0009 31.4595 18.9213 30.2008 20.477 28.8497C21.5594 27.9096 22.5704 26.8535 23.4619 25.7317C24.9619 23.8443 26.1764 21.7516 27.1378 19.3979C28.2991 16.5545 29.0603 13.3657 29.3809 9.99991C29.4886 8.86903 29.5333 7.93416 29.5361 6.75128L29.5385 5.77502L29.2978 5.68711C29.1654 5.63876 29.0053 5.58128 28.942 5.5594C28.8787 5.53752 28.2854 5.32554 27.6236 5.08837C25.6883 4.39483 24.0326 3.80176 22.4755 3.2444C21.6756 2.95806 20.5126 2.54148 19.891 2.31869C19.2695 2.09591 18.6621 1.87861 18.5412 1.83579C18.4204 1.79298 17.554 1.48293 16.6159 1.1468C15.6778 0.810675 14.8774 0.524541 14.8371 0.510928C14.7694 0.48806 14.7408 0.494456 14.4604 0.59518ZM15.4352 2.19691C15.7681 2.31634 16.4501 2.56071 16.9507 2.73995C17.4514 2.91917 18.3696 3.24802 18.9911 3.47069C20.8578 4.13944 21.8005 4.47707 23.9404 5.24316C25.0627 5.64493 26.3669 6.11217 26.8389 6.2815C27.3108 6.45083 27.8028 6.62663 27.9323 6.67218L28.1677 6.755L28.1675 7.40578C28.1662 11.7242 27.3428 15.9368 25.8007 19.5149C24.342 22.8993 22.2177 25.7611 19.5402 27.9488C18.2159 29.0308 16.8577 29.9003 15.2812 30.6753L14.8779 30.8736L14.5422 30.7067C11.9535 29.4201 9.74206 27.7351 7.88471 25.6341C6.22393 23.7555 4.89793 21.6151 3.85965 19.1372C2.52077 15.9419 1.73311 12.3013 1.54904 8.45757C1.53738 8.2144 1.52166 7.72393 1.51409 7.36765L1.5003 6.71987L2.15735 6.48661C2.51872 6.35833 2.88974 6.22709 2.98182 6.19497C3.0739 6.16287 3.53063 6.00092 3.99679 5.83511C5.42898 5.32564 6.22081 5.04443 7.40793 4.62357C8.03522 4.40119 8.59554 4.20147 8.6531 4.17977C8.73915 4.1473 9.90057 3.73498 10.4214 3.55198C10.4963 3.5257 10.8682 3.39361 11.2481 3.25848C11.6279 3.12333 12.2589 2.89908 12.6502 2.76015C13.2558 2.54514 14.8231 1.98445 14.8283 1.98092C14.8293 1.98028 15.1024 2.07749 15.4352 2.19691ZM15.0132 7.37278C15.0199 9.27577 15.0309 14.9809 15.0377 20.0508L15.05 29.2688H14.8311H14.6122L14.5968 16.6062C14.5883 9.64182 14.579 3.94108 14.5761 3.93791C14.5732 3.93475 14.3741 4.00228 14.1337 4.08799C13.8933 4.17368 13.2304 4.40935 12.6607 4.61169C12.0909 4.814 11.3517 5.07667 11.0179 5.19539C10.6841 5.31409 9.92599 5.58371 9.33323 5.79451C8.74047 6.00534 7.85054 6.32158 7.35561 6.4973C6.86068 6.67303 6.14497 6.92745 5.76514 7.0627C5.38531 7.19794 4.94741 7.35328 4.79202 7.4079C3.90142 7.72093 3.04249 8.03074 3.02865 8.04392C3.0103 8.06142 3.04452 9.42464 3.07674 9.95878C3.42547 15.7407 5.29687 20.8316 8.4212 24.4979C8.71134 24.8383 8.7223 24.8505 9.07631 25.2279C9.30083 25.4672 9.97875 26.1297 10.2126 26.3384C11.4873 27.4755 12.8522 28.4027 14.4118 29.1906L14.8549 29.4145L15.2344 29.2278C18.2913 27.7241 20.8028 25.5372 22.6739 22.7499C23.2059 21.9574 23.4866 21.477 23.9478 20.57C25.3671 17.7786 26.2439 14.5097 26.5237 10.9664C26.5912 10.1121 26.6403 8.43061 26.6049 8.18232L26.5877 8.06127L25.2484 7.58107C24.5117 7.31696 23.8572 7.08282 23.7939 7.06073C23.7306 7.03864 23.1986 6.84811 22.6116 6.63731C22.0245 6.4265 21.3653 6.19059 21.1466 6.11304C20.928 6.03549 20.5136 5.88736 20.2258 5.78388C19.9381 5.6804 18.8363 5.2855 17.7774 4.90633C16.7184 4.52717 15.7626 4.18465 15.6533 4.14516C15.5439 4.1057 15.3524 4.03726 15.2277 3.99309L15.0009 3.91278L15.0132 7.37278ZM9.87734 11.9021V12.0152L9.75701 12.016C9.59905 12.017 9.38544 12.0586 9.28091 12.1087C9.16916 12.1623 9.1087 12.2748 9.08114 12.4804C9.06706 12.5855 9.06157 13.3322 9.06553 14.6063C9.07149 16.5233 9.07264 16.5722 9.11349 16.6512C9.17142 16.7633 9.26557 16.8048 9.52114 16.8312C9.7709 16.857 10.1325 16.8299 10.3911 16.7661C10.4826 16.7435 10.6564 16.6772 10.7772 16.6187C10.9677 16.5265 11.0206 16.4886 11.1748 16.3343C11.3814 16.1277 11.5452 15.8786 11.6902 15.5506L11.7894 15.3261H11.9126C12.0199 15.3261 12.0343 15.3307 12.025 15.3621C12.0191 15.3819 11.9707 15.6387 11.9176 15.9328C11.7745 16.7242 11.7204 17.0173 11.7082 17.069L11.6972 17.1154L9.39036 17.1102L7.08355 17.1049V17.0021V16.8993L7.23314 16.8861C7.50348 16.8624 7.64229 16.7921 7.72725 16.6359L7.77415 16.5497V14.4521V12.3545L7.72183 12.2628C7.63484 12.1103 7.50226 12.0457 7.21958 12.0182L7.08355 12.0049L7.07692 11.9257C7.06455 11.7776 6.9474 11.789 8.48503 11.789H9.87734V11.9021ZM20.3472 11.8365C21.3533 11.9833 21.867 12.4311 21.8683 13.1628C21.8692 13.6352 21.6673 13.9923 21.251 14.2543C21.0885 14.3567 20.8647 14.4544 20.6718 14.5074L20.5736 14.5344L20.8464 14.8942C20.9965 15.0922 21.2206 15.3883 21.3443 15.5523C21.4681 15.7163 21.7348 16.0695 21.937 16.3373C22.1392 16.605 22.3247 16.8346 22.3492 16.8475C22.3737 16.8604 22.4334 16.8775 22.4817 16.8857L22.5697 16.9004V17.0027V17.1049L21.7431 17.1095L20.9164 17.1142L20.8118 16.9752C20.7543 16.8987 20.3399 16.349 19.891 15.7534L19.0749 14.6706L19.0694 15.5368C19.0636 16.4564 19.0738 16.5798 19.1664 16.7039C19.2431 16.8066 19.4591 16.8883 19.6556 16.8888L19.755 16.889V17.0023V17.1155L18.4104 17.1102L17.0658 17.1049V17.0021V16.8993L17.1914 16.8871C17.5114 16.8562 17.6553 16.7681 17.7196 16.5637C17.7537 16.4556 17.7564 16.2977 17.7564 14.4624C17.7564 12.3319 17.7578 12.3614 17.6489 12.1997C17.584 12.1033 17.4853 12.0617 17.2398 12.0274L17.0658 12.0031L17.0592 11.9247C17.0464 11.7733 16.9103 11.7848 18.5987 11.7947C19.8528 11.802 20.1611 11.8094 20.3472 11.8365ZM19.3402 12.0794C19.1983 12.1026 19.1555 12.1258 19.1052 12.2068C19.0663 12.2694 19.0645 12.3189 19.0645 13.3294L19.0644 14.3865L19.3312 14.3738C19.628 14.3597 19.9306 14.2951 20.104 14.2087C20.3846 14.069 20.4946 13.789 20.493 13.2182C20.4919 12.8526 20.4543 12.6571 20.3481 12.4653C20.1766 12.1557 19.7866 12.0064 19.3402 12.0794Z" fill="#336699"/>
</svg>
